<svg xmlns="http://www.w3.org/2000/svg" viewBox="0 0 760 460">
  <defs>
    <marker id="smallArrow" markerWidth="6" markerHeight="6" refX="6" refY="3" orient="auto">
      <path d="M0,0 L6,3 L0,6 z" fill="#3b82f6"/>
    </marker>
  </defs>

  <g transform="translate(20, 50)">
    <text x="110" y="-15" font-family="Arial, sans-serif" font-size="16" font-weight="bold" fill="#1e40af" text-anchor="middle">СУЩНОСТЬ А</text>
    
    <g>
        <rect x="0" y="0" width="220" height="30" fill="#e0e7ff"/>
        <line x1="60" y1="0" x2="60" y2="30" stroke="#3b82f6" stroke-width="2"/>
        <text x="30" y="19" font-family="Arial" font-size="12" font-weight="bold" fill="#1e40af" text-anchor="middle">ID</text>
        <text x="140" y="19" font-family="Arial" font-size="12" font-weight="bold" fill="#1e40af" text-anchor="middle">ДАННЫЕ</text>

        <rect x="0" y="30" width="220" height="30" fill="#1e3a8a"/>
        <line x1="60" y1="30" x2="60" y2="60" stroke="#ffffff" stroke-width="1"/>
        <text x="30" y="49" font-family="Arial" font-size="12" fill="#ffffff" text-anchor="middle">1</text>
        <text x="140" y="49" font-family="Arial" font-size="12" fill="#ffffff" text-anchor="middle">Уникальный атрибут</text>

        <rect x="0" y="60" width="220" height="30" fill="#3b82f6"/>
        <line x1="0" y1="60" x2="220" y2="60" stroke="#ffffff" stroke-width="1" opacity="0.5"/>
        <line x1="60" y1="60" x2="60" y2="90" stroke="#ffffff" stroke-width="1"/>
        <text x="30" y="79" font-family="Arial" font-size="12" fill="#ffffff" text-anchor="middle">2</text>
        <text x="140" y="79" font-family="Arial" font-size="12" fill="#ffffff" text-anchor="middle">Общий (X)</text>

         <rect x="0" y="90" width="220" height="30" fill="#3b82f6"/>
        <line x1="0" y1="90" x2="220" y2="90" stroke="#ffffff" stroke-width="1" opacity="0.5"/>
        <line x1="60" y1="90" x2="60" y2="120" stroke="#ffffff" stroke-width="1"/>
        <text x="30" y="109" font-family="Arial" font-size="12" fill="#ffffff" text-anchor="middle">3</text>
        <text x="140" y="109" font-family="Arial" font-size="12" fill="#ffffff" text-anchor="middle">Общий (Y)</text>
    </g>
    <rect x="0" y="0" width="220" height="120" fill="none" stroke="#3b82f6" stroke-width="3"/>
  </g>

  <g transform="translate(520, 50)">
    <text x="110" y="-15" font-family="Arial, sans-serif" font-size="16" font-weight="bold" fill="#1e40af" text-anchor="middle">СУЩНОСТЬ Б</text>
    
    <g>
        <rect x="0" y="0" width="220" height="30" fill="#e0e7ff"/>
        <line x1="60" y1="0" x2="60" y2="30" stroke="#3b82f6" stroke-width="2"/>
        <text x="30" y="19" font-family="Arial" font-size="12" font-weight="bold" fill="#1e40af" text-anchor="middle">ID</text>
        <text x="140" y="19" font-family="Arial" font-size="12" font-weight="bold" fill="#1e40af" text-anchor="middle">ДАННЫЕ</text>

        <rect x="0" y="30" width="220" height="30" fill="#3b82f6"/>
        <line x1="60" y1="30" x2="60" y2="60" stroke="#ffffff" stroke-width="1"/>
        <text x="30" y="49" font-family="Arial" font-size="12" fill="#ffffff" text-anchor="middle">2</text>
        <text x="140" y="49" font-family="Arial" font-size="12" fill="#ffffff" text-anchor="middle">Общий (X)</text>

        <rect x="0" y="60" width="220" height="30" fill="#3b82f6"/>
        <line x1="0" y1="60" x2="220" y2="60" stroke="#ffffff" stroke-width="1" opacity="0.5"/>
        <line x1="60" y1="60" x2="60" y2="90" stroke="#ffffff" stroke-width="1"/>
        <text x="30" y="79" font-family="Arial" font-size="12" fill="#ffffff" text-anchor="middle">3</text>
        <text x="140" y="79" font-family="Arial" font-size="12" fill="#ffffff" text-anchor="middle">Общий (Y)</text>

        <rect x="0" y="90" width="220" height="30" fill="#60a5fa"/>
        <line x1="60" y1="90" x2="60" y2="120" stroke="#ffffff" stroke-width="1"/>
        <text x="30" y="109" font-family="Arial" font-size="12" fill="#ffffff" text-anchor="middle">4</text>
        <text x="140" y="109" font-family="Arial" font-size="12" fill="#ffffff" text-anchor="middle">Уникальный атрибут</text>
    </g>
    <rect x="0" y="0" width="220" height="120" fill="none" stroke="#3b82f6" stroke-width="3"/>
  </g>

  <path d="M130,170 L130,220 L320,280" fill="none" stroke="#3b82f6" stroke-width="3" marker-end="url(#smallArrow)"/>
  <path d="M630,170 L630,220 L440,280" fill="none" stroke="#3b82f6" stroke-width="3" marker-end="url(#smallArrow)"/>
  
  <circle cx="380" cy="240" r="25" fill="#ffffff" stroke="#3b82f6" stroke-width="3"/>
  <text x="380" y="252" font-family="Arial" font-size="40" font-weight="bold" fill="#1e40af" text-anchor="middle">−</text>

  <g transform="translate(270, 300)">
    <text x="110" y="-15" font-family="Arial, sans-serif" font-size="16" font-weight="bold" fill="#1e40af" text-anchor="middle">РЕЗУЛЬТАТ</text>
    
    <g>
        <rect x="0" y="0" width="220" height="30" fill="#e0e7ff"/>
        <line x1="60" y1="0" x2="60" y2="30" stroke="#3b82f6" stroke-width="2"/>
        <text x="30" y="19" font-family="Arial" font-size="12" font-weight="bold" fill="#1e40af" text-anchor="middle">ID</text>
        <text x="140" y="19" font-family="Arial" font-size="12" font-weight="bold" fill="#1e40af" text-anchor="middle">ДАННЫЕ</text>

        <rect x="0" y="30" width="220" height="30" fill="#1e3a8a"/>
        <line x1="60" y1="30" x2="60" y2="60" stroke="#ffffff" stroke-width="1"/>
        <text x="30" y="49" font-family="Arial" font-size="12" fill="#ffffff" text-anchor="middle">1</text>
        <text x="140" y="49" font-family="Arial" font-size="12" fill="#ffffff" text-anchor="middle">Уникальный атрибут</text>
    </g>
    <rect x="0" y="0" width="220" height="60" fill="none" stroke="#3b82f6" stroke-width="3"/>
  </g>

</svg>