<svg xmlns="http://www.w3.org/2000/svg" viewBox="0 0 800 580">
  <defs>
    <marker id="smallArrow" markerWidth="6" markerHeight="6" refX="6" refY="3" orient="auto">
      <path d="M0,0 L6,3 L0,6 z" fill="#3b82f6"/>
    </marker>
  </defs>

  <g transform="translate(40, 50)">
    <text x="110" y="-15" font-family="Arial" font-size="16" font-weight="bold" fill="#1e40af" text-anchor="middle">ТАБЛИЦА А</text>
    <rect x="0" y="0" width="220" height="90" fill="none" stroke="#3b82f6" stroke-width="3"/>
    <rect x="0" y="0" width="220" height="30" fill="#e0e7ff"/>
    <text x="30" y="19" font-family="Arial" font-size="12" font-weight="bold" fill="#1e40af" text-anchor="middle">ID</text>
    <text x="130" y="19" font-family="Arial" font-size="12" font-weight="bold" fill="#1e40af" text-anchor="middle">ДАННЫЕ</text>
    <line x1="60" y1="0" x2="60" y2="30" stroke="#3b82f6" stroke-width="2"/>
    <rect x="0" y="30" width="220" height="30" fill="#3b82f6"/>
    <text x="30" y="49" font-family="Arial" font-size="12" fill="#fff" text-anchor="middle">1</text>
    <text x="130" y="49" font-family="Arial" font-size="12" fill="#fff" text-anchor="middle">Только А</text>
    <rect x="0" y="60" width="220" height="30" fill="#1e3a8a"/>
    <text x="30" y="79" font-family="Arial" font-size="12" fill="#fff" text-anchor="middle">2</text>
    <text x="130" y="79" font-family="Arial" font-size="12" fill="#fff" text-anchor="middle">Общая</text>
    <line x1="60" y1="30" x2="60" y2="90" stroke="#fff" stroke-width="1"/>
    <line x1="0" y1="60" x2="220" y2="60" stroke="#fff" opacity="0.5"/>
  </g>

  <g transform="translate(540, 50)">
    <text x="110" y="-15" font-family="Arial" font-size="16" font-weight="bold" fill="#1e40af" text-anchor="middle">ТАБЛИЦА B</text>
    <rect x="0" y="0" width="220" height="90" fill="none" stroke="#3b82f6" stroke-width="3"/>
    <rect x="0" y="0" width="220" height="30" fill="#e0e7ff"/>
    <text x="30" y="19" font-family="Arial" font-size="12" font-weight="bold" fill="#1e40af" text-anchor="middle">ID</text>
    <text x="130" y="19" font-family="Arial" font-size="12" font-weight="bold" fill="#1e40af" text-anchor="middle">ДАННЫЕ</text>
    <line x1="60" y1="0" x2="60" y2="30" stroke="#3b82f6" stroke-width="2"/>
    <rect x="0" y="30" width="220" height="30" fill="#1e3a8a"/>
    <text x="30" y="49" font-family="Arial" font-size="12" fill="#fff" text-anchor="middle">2</text>
    <text x="130" y="49" font-family="Arial" font-size="12" fill="#fff" text-anchor="middle">Общая</text>
    <rect x="0" y="60" width="220" height="30" fill="#60a5fa"/>
    <text x="30" y="79" font-family="Arial" font-size="12" fill="#fff" text-anchor="middle">3</text>
    <text x="130" y="79" font-family="Arial" font-size="12" fill="#fff" text-anchor="middle">Только Б</text>
    <line x1="60" y1="30" x2="60" y2="90" stroke="#fff" stroke-width="1"/>
    <line x1="0" y1="60" x2="220" y2="60" stroke="#fff" opacity="0.5"/>
  </g>

  <path d="M150,140 L150,220 L380,270" fill="none" stroke="#3b82f6" stroke-width="3" marker-end="url(#smallArrow)"/>
  <path d="M650,140 L650,220 L420,270" fill="none" stroke="#3b82f6" stroke-width="3" marker-end="url(#smallArrow)"/>
  
  <text x="400" y="240" font-family="Arial" font-size="20" font-weight="bold" fill="#1e40af" text-anchor="middle">ПОЛНОЕ (FULL)</text>

  <g transform="translate(200, 300)">
    <text x="200" y="-15" font-family="Arial" font-size="16" font-weight="bold" fill="#1e40af" text-anchor="middle">РЕЗУЛЬТАТ</text>
    <rect x="0" y="0" width="400" height="30" fill="#e0e7ff"/>
    
    <g transform="translate(0, 30)">
        <rect width="200" height="30" fill="#3b82f6"/>
        <rect x="200" width="200" height="30" fill="#e5e7eb"/>
        <text x="40" y="19" font-family="Arial" font-size="12" fill="#fff" text-anchor="middle">1</text>
        <text x="140" y="19" font-family="Arial" font-size="12" fill="#fff" text-anchor="middle">Только А</text>
        <text x="240" y="19" font-family="Arial" font-size="12" fill="#6b7280" text-anchor="middle">NULL</text>
        <text x="340" y="19" font-family="Arial" font-size="12" fill="#6b7280" text-anchor="middle">NULL</text>
    </g>

    <g transform="translate(0, 60)">
        <rect width="400" height="30" fill="#1e3a8a"/>
        <text x="40" y="19" font-family="Arial" font-size="12" fill="#fff" text-anchor="middle">2</text>
        <text x="140" y="19" font-family="Arial" font-size="12" fill="#fff" text-anchor="middle">Общая</text>
        <text x="240" y="19" font-family="Arial" font-size="12" fill="#fff" text-anchor="middle">2</text>
        <text x="340" y="19" font-family="Arial" font-size="12" fill="#fff" text-anchor="middle">Общая</text>
        <line x1="0" y1="0" x2="400" y2="0" stroke="#fff" opacity="0.5"/>
    </g>

    <g transform="translate(0, 90)">
        <rect width="200" height="30" fill="#e5e7eb"/>
        <rect x="200" width="200" height="30" fill="#60a5fa"/>
        <text x="40" y="19" font-family="Arial" font-size="12" fill="#6b7280" text-anchor="middle">NULL</text>
        <text x="140" y="19" font-family="Arial" font-size="12" fill="#6b7280" text-anchor="middle">NULL</text>
        <text x="240" y="19" font-family="Arial" font-size="12" fill="#fff" text-anchor="middle">3</text>
        <text x="340" y="19" font-family="Arial" font-size="12" fill="#fff" text-anchor="middle">Только Б</text>
        <line x1="0" y1="0" x2="400" y2="0" stroke="#fff" opacity="0.5"/>
    </g>

    <line x1="80" y1="0" x2="80" y2="120" stroke="#3b82f6" stroke-width="1"/>
    <line x1="200" y1="0" x2="200" y2="120" stroke="#3b82f6" stroke-width="2"/>
    <line x1="280" y1="0" x2="280" y2="120" stroke="#3b82f6" stroke-width="1"/>
    
    <text x="40" y="19" font-family="Arial" font-size="11" font-weight="bold" fill="#1e40af" text-anchor="middle">A.ID</text>
    <text x="140" y="19" font-family="Arial" font-size="11" font-weight="bold" fill="#1e40af" text-anchor="middle">A.ДАННЫЕ</text>
    <text x="240" y="19" font-family="Arial" font-size="11" font-weight="bold" fill="#1e40af" text-anchor="middle">B.ID</text>
    <text x="340" y="19" font-family="Arial" font-size="11" font-weight="bold" fill="#1e40af" text-anchor="middle">B.ДАННЫЕ</text>

    <rect x="0" y="0" width="400" height="120" fill="none" stroke="#3b82f6" stroke-width="3"/>
  </g>
</svg>