<svg xmlns="http://www.w3.org/2000/svg" viewBox="0 0 800 400">
  <defs>
    <marker id="smallArrow" markerWidth="6" markerHeight="6" refX="6" refY="3" orient="auto">
      <path d="M0,0 L6,3 L0,6 z" fill="#3b82f6"/>
    </marker>
  </defs>

  <g transform="translate(20, 50)">
    <text x="120" y="-15" font-family="Arial, sans-serif" font-size="16" font-weight="bold" fill="#1e40af" text-anchor="middle">СУЩНОСТЬ "СОТРУДНИКИ"</text>
    
    <g>
        <rect x="0" y="0" width="40" height="30" fill="#e0e7ff"/> <rect x="40" y="0" width="70" height="30" fill="#1e3a8a"/> <rect x="110" y="0" width="70" height="30" fill="#1e3a8a"/> <rect x="180" y="0" width="60" height="30" fill="#e0e7ff"/> <text x="20" y="19" font-family="Arial" font-size="11" font-weight="bold" fill="#1e40af" text-anchor="middle">ID</text>
        <text x="75" y="19" font-family="Arial" font-size="11" font-weight="bold" fill="#ffffff" text-anchor="middle">ИМЯ</text>
        <text x="145" y="19" font-family="Arial" font-size="11" font-weight="bold" fill="#ffffff" text-anchor="middle">ОТДЕЛ</text>
        <text x="210" y="19" font-family="Arial" font-size="11" font-weight="bold" fill="#1e40af" text-anchor="middle">ВОЗРАСТ</text>

        <g transform="translate(0, 30)"><rect x="0" width="40" height="30" fill="#3b82f6"/><rect x="40" width="70" height="30" fill="#1e3a8a"/><rect x="110" width="70" height="30" fill="#1e3a8a"/><rect x="180" width="60" height="30" fill="#3b82f6"/>
        <text x="20" y="19" fill="#fff" text-anchor="middle" font-size="11">1</text><text x="75" y="19" fill="#fff" text-anchor="middle" font-size="11">Иван</text><text x="145" y="19" fill="#fff" text-anchor="middle" font-size="11">IT</text><text x="210" y="19" fill="#fff" text-anchor="middle" font-size="11">25</text><line x1="0" y1="30" x2="240" y2="30" stroke="#fff" opacity="0.5"/></g>

        <g transform="translate(0, 60)"><rect x="0" width="40" height="30" fill="#3b82f6"/><rect x="40" width="70" height="30" fill="#1e3a8a"/><rect x="110" width="70" height="30" fill="#1e3a8a"/><rect x="180" width="60" height="30" fill="#3b82f6"/>
        <text x="20" y="19" fill="#fff" text-anchor="middle" font-size="11">2</text><text x="75" y="19" fill="#fff" text-anchor="middle" font-size="11">Ольга</text><text x="145" y="19" fill="#fff" text-anchor="middle" font-size="11">HR</text><text x="210" y="19" fill="#fff" text-anchor="middle" font-size="11">35</text><line x1="0" y1="30" x2="240" y2="30" stroke="#fff" opacity="0.5"/></g>

        <g transform="translate(0, 90)"><rect x="0" width="40" height="30" fill="#3b82f6"/><rect x="40" width="70" height="30" fill="#1e3a8a"/><rect x="110" width="70" height="30" fill="#1e3a8a"/><rect x="180" width="60" height="30" fill="#3b82f6"/>
        <text x="20" y="19" fill="#fff" text-anchor="middle" font-size="11">3</text><text x="75" y="19" fill="#fff" text-anchor="middle" font-size="11">Петр</text><text x="145" y="19" fill="#fff" text-anchor="middle" font-size="11">IT</text><text x="210" y="19" fill="#fff" text-anchor="middle" font-size="11">28</text><line x1="0" y1="30" x2="240" y2="30" stroke="#fff" opacity="0.5"/></g>

        <g transform="translate(0, 120)"><rect x="0" width="40" height="30" fill="#3b82f6"/><rect x="40" width="70" height="30" fill="#1e3a8a"/><rect x="110" width="70" height="30" fill="#1e3a8a"/><rect x="180" width="60" height="30" fill="#3b82f6"/>
        <text x="20" y="19" fill="#fff" text-anchor="middle" font-size="11">4</text><text x="75" y="19" fill="#fff" text-anchor="middle" font-size="11">Анна</text><text x="145" y="19" fill="#fff" text-anchor="middle" font-size="11">Продажи</text><text x="210" y="19" fill="#fff" text-anchor="middle" font-size="11">22</text><line x1="0" y1="30" x2="240" y2="30" stroke="#fff" opacity="0.5"/></g>

        <g transform="translate(0, 150)"><rect x="0" width="40" height="30" fill="#3b82f6"/><rect x="40" width="70" height="30" fill="#1e3a8a"/><rect x="110" width="70" height="30" fill="#1e3a8a"/><rect x="180" width="60" height="30" fill="#3b82f6"/>
        <text x="20" y="19" fill="#fff" text-anchor="middle" font-size="11">5</text><text x="75" y="19" fill="#fff" text-anchor="middle" font-size="11">Сергей</text><text x="145" y="19" fill="#fff" text-anchor="middle" font-size="11">IT</text><text x="210" y="19" fill="#fff" text-anchor="middle" font-size="11">42</text><line x1="0" y1="30" x2="240" y2="30" stroke="#fff" opacity="0.5"/></g>

        <g transform="translate(0, 180)"><rect x="0" width="40" height="30" fill="#3b82f6"/><rect x="40" width="70" height="30" fill="#1e3a8a"/><rect x="110" width="70" height="30" fill="#1e3a8a"/><rect x="180" width="60" height="30" fill="#3b82f6"/>
        <text x="20" y="19" fill="#fff" text-anchor="middle" font-size="11">6</text><text x="75" y="19" fill="#fff" text-anchor="middle" font-size="11">Мария</text><text x="145" y="19" fill="#fff" text-anchor="middle" font-size="11">HR</text><text x="210" y="19" fill="#fff" text-anchor="middle" font-size="11">29</text><line x1="0" y1="30" x2="240" y2="30" stroke="#fff" opacity="0.5"/></g>

        <g transform="translate(0, 210)"><rect x="0" width="40" height="30" fill="#3b82f6"/><rect x="40" width="70" height="30" fill="#1e3a8a"/><rect x="110" width="70" height="30" fill="#1e3a8a"/><rect x="180" width="60" height="30" fill="#3b82f6"/>
        <text x="20" y="19" fill="#fff" text-anchor="middle" font-size="11">7</text><text x="75" y="19" fill="#fff" text-anchor="middle" font-size="11">Дмитрий</text><text x="145" y="19" fill="#fff" text-anchor="middle" font-size="11">Продажи</text><text x="210" y="19" fill="#fff" text-anchor="middle" font-size="11">31</text></g>

        <line x1="40" y1="0" x2="40" y2="240" stroke="#fff" stroke-width="1"/>
        <line x1="110" y1="0" x2="110" y2="240" stroke="#fff" stroke-width="1"/>
        <line x1="180" y1="0" x2="180" y2="240" stroke="#fff" stroke-width="1"/>
    </g>
    <rect x="0" y="0" width="240" height="240" fill="none" stroke="#3b82f6" stroke-width="3"/>
  </g>

  <g transform="translate(300, 150)">
    <path d="M0,20 L180,20" fill="none" stroke="#3b82f6" stroke-width="3" marker-end="url(#smallArrow)"/>
    <circle cx="90" cy="20" r="25" fill="#ffffff" stroke="#3b82f6" stroke-width="3"/>
    <text x="90" y="28" font-family="Arial" font-size="24" font-weight="bold" fill="#1e40af" text-anchor="middle">π</text>
    <text x="90" y="65" font-family="Arial" font-size="14" fill="#1e40af" text-anchor="middle">ИМЯ, ОТДЕЛ</text>
  </g>

  <g transform="translate(520, 50)">
    <text x="70" y="-15" font-family="Arial, sans-serif" font-size="16" font-weight="bold" fill="#1e40af" text-anchor="middle">РЕЗУЛЬТАТ</text>
    <g>
        <rect x="0" y="0" width="70" height="30" fill="#1e3a8a"/>
        <rect x="70" y="0" width="70" height="30" fill="#1e3a8a"/>
        <text x="35" y="19" font-family="Arial" font-size="11" font-weight="bold" fill="#ffffff" text-anchor="middle">ИМЯ</text>
        <text x="105" y="19" font-family="Arial" font-size="11" font-weight="bold" fill="#ffffff" text-anchor="middle">ОТДЕЛ</text>

        <g transform="translate(0, 30)"><rect width="140" height="30" fill="#1e3a8a"/><text x="35" y="19" fill="#fff" text-anchor="middle" font-size="11">Иван</text><text x="105" y="19" fill="#fff" text-anchor="middle" font-size="11">IT</text><line x1="0" y1="30" x2="140" y2="30" stroke="#fff" opacity="0.5"/></g>
        <g transform="translate(0, 60)"><rect width="140" height="30" fill="#1e3a8a"/><text x="35" y="19" fill="#fff" text-anchor="middle" font-size="11">Ольга</text><text x="105" y="19" fill="#fff" text-anchor="middle" font-size="11">HR</text><line x1="0" y1="30" x2="140" y2="30" stroke="#fff" opacity="0.5"/></g>
        <g transform="translate(0, 90)"><rect width="140" height="30" fill="#1e3a8a"/><text x="35" y="19" fill="#fff" text-anchor="middle" font-size="11">Петр</text><text x="105" y="19" fill="#fff" text-anchor="middle" font-size="11">IT</text><line x1="0" y1="30" x2="140" y2="30" stroke="#fff" opacity="0.5"/></g>
        <g transform="translate(0, 120)"><rect width="140" height="30" fill="#1e3a8a"/><text x="35" y="19" fill="#fff" text-anchor="middle" font-size="11">Анна</text><text x="105" y="19" fill="#fff" text-anchor="middle" font-size="11">Продажи</text><line x1="0" y1="30" x2="140" y2="30" stroke="#fff" opacity="0.5"/></g>
        <g transform="translate(0, 150)"><rect width="140" height="30" fill="#1e3a8a"/><text x="35" y="19" fill="#fff" text-anchor="middle" font-size="11">Сергей</text><text x="105" y="19" fill="#fff" text-anchor="middle" font-size="11">IT</text><line x1="0" y1="30" x2="140" y2="30" stroke="#fff" opacity="0.5"/></g>
        <g transform="translate(0, 180)"><rect width="140" height="30" fill="#1e3a8a"/><text x="35" y="19" fill="#fff" text-anchor="middle" font-size="11">Мария</text><text x="105" y="19" fill="#fff" text-anchor="middle" font-size="11">HR</text><line x1="0" y1="30" x2="140" y2="30" stroke="#fff" opacity="0.5"/></g>
        <g transform="translate(0, 210)"><rect width="140" height="30" fill="#1e3a8a"/><text x="35" y="19" fill="#fff" text-anchor="middle" font-size="11">Дмитрий</text><text x="105" y="19" fill="#fff" text-anchor="middle" font-size="11">Продажи</text></g>

        <line x1="70" y1="0" x2="70" y2="240" stroke="#fff" stroke-width="1"/>
    </g>
    <rect x="0" y="0" width="140" height="240" fill="none" stroke="#3b82f6" stroke-width="3"/>
  </g>
</svg>